HIERARCHY
ROOT root
{
	OFFSET 0.000000 0.000000 0.000000
	CHANNELS 6 Xposition Yposition Zposition Zrotation Yrotation Xrotation
	JOINT lhip
	{
		OFFSET 0.058581 -0.082280 -0.017664
		CHANNELS 3 Zrotation Yrotation Xrotation
		JOINT lknee
		{
			OFFSET 0.043451 -0.386469 0.008037
			CHANNELS 3 Zrotation Yrotation Xrotation
			JOINT lankle
			{
				OFFSET -0.014790 -0.426874 -0.037428
				CHANNELS 3 Zrotation Yrotation Xrotation
				JOINT ltoe
				{
					OFFSET 0.041054 -0.060286 0.122042
					CHANNELS 3 Zrotation Yrotation Xrotation
					End Site
					{
						OFFSET 0.000000 0.000000 0.000000
					}
				}
			}
		}
	}
	JOINT rhip
	{
		OFFSET -0.060310 -0.090513 -0.013543
		CHANNELS 3 Zrotation Yrotation Xrotation
		JOINT rknee
		{
			OFFSET -0.043257 -0.383688 -0.004843
			CHANNELS 3 Zrotation Yrotation Xrotation
			JOINT rankle
			{
				OFFSET 0.019056 -0.420046 -0.034562
				CHANNELS 3 Zrotation Yrotation Xrotation
				JOINT rtoe
				{
					OFFSET -0.034840 -0.062106 0.130323
					CHANNELS 3 Zrotation Yrotation Xrotation
					End Site
					{
						OFFSET 0.000000 0.000000 0.000000
					}
				}
			}
		}
	}
	JOINT lowerback
	{
		OFFSET 0.004439 0.124404 -0.038385
		CHANNELS 3 Zrotation Yrotation Xrotation
		JOINT upperback
		{
			OFFSET 0.004488 0.137956 0.026820
			CHANNELS 3 Zrotation Yrotation Xrotation
			JOINT chest
			{
				OFFSET -0.002265 0.056032 0.002855
				CHANNELS 3 Zrotation Yrotation Xrotation
				JOINT lowerneck
				{
					OFFSET -0.013390 0.211636 -0.033468
					CHANNELS 3 Zrotation Yrotation Xrotation
					JOINT upperneck
					{
						OFFSET 0.010113 0.088937 0.050410
						CHANNELS 3 Zrotation Yrotation Xrotation
						End Site
						{
							OFFSET 0.000000 0.000000 0.000000
						}
					}
				}
				JOINT lclavicle
				{
					OFFSET 0.071702 0.114000 -0.018898
					CHANNELS 3 Zrotation Yrotation Xrotation
					JOINT lshoulder
					{
						OFFSET 0.122921 0.045205 -0.019046
						CHANNELS 3 Zrotation Yrotation Xrotation
						JOINT lelbow
						{
							OFFSET 0.255332 -0.015649 -0.022946
							CHANNELS 3 Zrotation Yrotation Xrotation
							JOINT lwrist
							{
								OFFSET 0.265709 0.012698 -0.007375
								CHANNELS 3 Zrotation Yrotation Xrotation
								End Site
								{
									OFFSET 0.000000 0.000000 0.000000
								}
							}
						}
					}
				}
				JOINT rclavicle
				{
					OFFSET -0.082954 0.112472 -0.023707
					CHANNELS 3 Zrotation Yrotation Xrotation
					JOINT rshoulder
					{
						OFFSET -0.113228 0.046853 -0.008472
						CHANNELS 3 Zrotation Yrotation Xrotation
						JOINT relbow
						{
							OFFSET -0.260127 -0.014369 -0.031269
							CHANNELS 3 Zrotation Yrotation Xrotation
							JOINT rwrist
							{
								OFFSET -0.269108 0.006794 -0.006027
								CHANNELS 3 Zrotation Yrotation Xrotation
								End Site
								{
									OFFSET 0.000000 0.000000 0.000000
								}
							}
						}
					}
				}
			}
		}
	}
}
MOTION
Frames: 18
Frame Time: 0.033333
-1.032350 0.439611 0.989643 83.649923 1.293780 86.118753 -0.258006 2.597774 7.164030 -2.121741 -2.536418 -0.832014 4.355254 11.640266 -21.497568 0.000000 -0.000000 0.000000 1.257150 -2.060950 2.206560 -0.929338 -1.044228 5.535543 3.316316 -3.839346 -11.237205 0.000000 -0.000000 0.000000 0.104811 0.956362 8.532834 1.250250 -1.447450 -0.967397 0.774181 0.080224 1.095291 1.187427 1.672618 -5.706409 2.776633 -4.062565 1.068263 -21.939617 2.498361 3.270529 -58.509482 -3.042216 15.754408 -3.443715 -42.043976 23.271521 7.142718 -11.796412 -13.938159 23.729648 2.727173 4.417474 57.245064 3.629437 16.477648 -4.240999 33.234796 10.078049 -9.762583 10.014273 -4.328826 
-1.032755 0.439240 0.989674 83.442394 1.247792 86.334681 -0.363563 2.388091 6.838627 -2.077706 -2.473487 -0.718415 4.358969 11.990309 -21.582862 0.000000 -0.000000 0.000000 1.149375 -1.828029 1.999024 -0.695562 -0.931005 5.344143 3.708183 -4.138495 -11.142878 0.000000 -0.000000 0.000000 0.069076 0.759203 8.268752 1.189640 -1.209909 -0.994458 0.834116 0.125946 1.290044 1.232786 1.674714 -6.332435 2.672984 -3.918471 1.217988 -21.879151 2.710474 3.147958 -58.572164 -3.016654 15.752188 -3.378512 -41.829971 23.208039 6.978039 -11.655239 -13.950071 23.580712 2.789126 4.283318 57.323377 3.640876 16.736618 -4.401031 33.012701 9.746975 -9.768643 9.964635 -4.162312 
-1.033198 0.438803 0.989850 83.288179 1.203799 86.400322 -0.378987 2.373981 6.603373 -2.084305 -2.511084 -0.574514 4.476833 12.121663 -21.643571 0.000000 -0.000000 0.000000 1.055920 -1.886715 1.913947 -0.511153 -1.135356 5.131066 3.758120 -4.064314 -10.941640 0.000000 -0.000000 0.000000 0.066408 0.721250 8.434997 1.144148 -1.185180 -1.217928 0.850484 0.157538 1.225194 1.231128 1.710707 -6.550512 2.749695 -3.732572 1.176320 -21.817353 2.940834 3.074232 -58.548099 -2.798994 15.670130 -3.522805 -41.780111 23.270563 7.022416 -11.644258 -13.926101 23.504275 2.743160 4.287074 57.369345 3.642381 16.739455 -4.404468 32.795725 9.623157 -9.822863 10.007334 -4.020194 
-1.033623 0.438297 0.989952 83.270058 1.165696 86.409177 -0.351442 2.410743 6.501027 -2.118081 -2.466164 -0.501244 4.459212 12.058662 -21.647539 0.000000 -0.000000 0.000000 0.984684 -1.960780 2.069577 -0.390716 -1.224783 4.765095 3.792450 -3.990767 -10.803213 0.000000 -0.000000 0.000000 0.068226 0.690111 8.581692 1.117714 -1.261923 -1.336428 0.861607 0.139336 1.150450 1.216479 1.823834 -6.680606 2.819202 -3.532820 1.055349 -21.805040 2.994202 3.126133 -58.376477 -2.574115 15.605355 -3.753666 -41.809098 23.481575 6.989914 -11.715218 -13.877365 23.498885 2.731656 4.327298 57.311388 3.592024 16.670801 -4.371356 32.703596 9.565788 -9.879557 10.015848 -4.005588 
-1.033760 0.438101 0.989906 83.332023 1.151308 86.396221 -0.331657 2.460498 6.528983 -2.114787 -2.361241 -0.549312 4.425331 11.862220 -21.645931 0.000000 -0.000000 0.000000 0.963368 -1.998023 2.230178 -0.354551 -1.268031 4.514980 3.802601 -3.985136 -10.744181 0.000000 -0.000000 0.000000 0.105045 0.658511 8.609529 1.101750 -1.328166 -1.341719 0.852045 0.112946 1.113636 1.187018 1.897741 -6.701192 2.817884 -3.410286 1.017835 -21.818971 2.956854 3.176695 -58.277507 -2.500731 15.572162 -3.860894 -41.760258 23.614494 6.814262 -11.773911 -13.793452 23.501860 2.731617 4.365366 57.256488 3.556988 16.626456 -4.325447 32.692457 9.593919 -9.831669 10.027509 -3.988216 
-1.033804 0.437953 0.989820 83.538534 1.135160 86.354348 -0.329410 2.486674 6.620730 -2.079933 -2.402442 -0.660946 4.385242 11.678454 -21.628665 0.000000 -0.000000 0.000000 0.959458 -2.047861 2.525190 -0.356649 -1.349644 4.098592 3.795977 -4.060865 -10.676704 0.000000 -0.000000 0.000000 0.159343 0.601589 8.619663 1.099313 -1.436123 -1.338511 0.847934 0.060442 1.095260 1.118320 1.978434 -6.722155 2.798867 -3.248162 1.001141 -21.851840 2.877929 3.247323 -58.260849 -2.497911 15.522271 -3.861040 -41.612457 23.644719 6.666294 -11.847453 -13.690702 23.492639 2.734293 4.390952 57.188639 3.470807 16.585185 -4.279925 32.669034 9.633744 -9.776281 10.053426 -3.999672 
-1.033761 0.437846 0.989644 83.849758 1.103648 86.301848 -0.351762 2.465239 6.695774 -2.042703 -2.727306 -0.758166 4.387284 11.695597 -21.540485 0.000000 -0.000000 0.000000 0.958689 -2.132583 2.881453 -0.396768 -1.448202 3.614902 3.749759 -4.199175 -10.582624 0.000000 -0.000000 0.000000 0.170190 0.572433 8.518735 1.127175 -1.559960 -1.235724 0.858893 -0.000734 1.138842 1.044894 2.016893 -6.775075 2.776439 -3.127425 0.939763 -21.890160 2.737961 3.322300 -58.366299 -2.599142 15.499580 -3.697502 -41.444725 23.490627 6.746559 -11.801860 -13.672234 23.471010 2.764675 4.386567 57.139722 3.395093 16.538042 -4.266349 32.589744 9.647016 -9.803959 10.037780 -4.040591 
-1.033666 0.437679 0.989365 84.126305 1.067934 86.282128 -0.370486 2.436501 6.730258 -2.020873 -3.035228 -0.846181 4.370358 11.744089 -21.431640 0.000000 -0.000000 0.000000 0.948469 -2.239122 3.191822 -0.431440 -1.556587 3.143394 3.715654 -4.297745 -10.457669 0.000000 -0.000000 0.000000 0.187991 0.573726 8.371137 1.129805 -1.631899 -1.145624 0.865706 -0.035452 1.201610 0.995262 2.011378 -6.840810 2.781779 -3.050544 0.832021 -21.899820 2.640682 3.344956 -58.519656 -2.711421 15.517250 -3.542404 -41.346401 23.400926 6.835363 -11.696466 -13.727362 23.420601 2.771936 4.376871 57.166117 3.347732 16.492975 -4.259263 32.450374 9.667759 -9.842664 9.975778 -4.063833 
-1.033457 0.437506 0.989131 84.344854 1.029604 86.277304 -0.380504 2.413704 6.760594 -2.021619 -3.132300 -0.912039 4.335350 11.645355 -21.399109 0.000000 -0.000000 0.000000 0.900353 -2.363939 3.488397 -0.427540 -1.685884 2.691369 3.757057 -4.285892 -10.310005 0.000000 -0.000000 0.000000 0.233569 0.599309 8.242070 1.095145 -1.648301 -1.118312 0.857651 -0.029244 1.238099 0.981667 1.962292 -6.869674 2.849692 -3.040771 0.747370 -21.920780 2.622494 3.325466 -58.617972 -2.797423 15.547089 -3.492489 -41.369138 23.426964 6.747800 -11.690025 -13.764466 23.384850 2.743062 4.399377 57.207543 3.299948 16.435829 -4.217187 32.279563 9.709033 -9.757175 9.917058 -4.054961 
-1.033229 0.437376 0.989001 84.549259 0.970338 86.260419 -0.402208 2.353540 6.777775 -2.061206 -3.199628 -0.912935 4.324377 11.557916 -21.396763 0.000000 -0.000000 0.000000 0.831997 -2.488710 3.741005 -0.443312 -1.813473 2.368926 3.804725 -4.237575 -10.228074 0.000000 -0.000000 0.000000 0.268787 0.679831 8.085293 1.063944 -1.613709 -1.047379 0.852635 0.008164 1.255722 1.003254 1.882190 -6.905402 2.944510 -3.115231 0.672827 -21.978534 2.596193 3.304757 -58.699000 -2.885838 15.615790 -3.451672 -41.560908 23.415109 6.612915 -11.726990 -13.808097 23.405882 2.774036 4.445932 57.201314 3.234055 16.382385 -4.225595 32.048656 9.688047 -9.579967 9.863001 -4.004610 
-1.033128 0.437312 0.989006 84.697938 0.921903 86.260854 -0.433789 2.280444 6.730814 -2.094589 -3.260885 -0.844674 4.332925 11.539276 -21.400874 0.000000 -0.000000 0.000000 0.774818 -2.533056 3.796112 -0.448496 -1.917504 2.336822 3.818108 -4.220459 -10.240907 0.000000 -0.000000 0.000000 0.287130 0.736985 7.960097 1.054281 -1.566196 -0.986769 0.857048 0.029865 1.276728 1.023301 1.832464 -6.955890 2.993623 -3.187186 0.639124 -21.982130 2.579835 3.301057 -58.816895 -2.952921 15.675413 -3.399988 -41.777478 23.323419 6.466069 -11.609718 -13.984319 23.406411 2.794011 4.471934 57.212735 3.249437 16.345079 -4.264060 31.871155 9.639147 -9.378313 9.795586 -3.954670 
-1.033005 0.437278 0.989095 84.875229 0.878792 86.258207 -0.469724 2.236093 6.680767 -2.104839 -3.309644 -0.760680 4.325982 11.468068 -21.424887 0.000000 -0.000000 0.000000 0.718058 -2.545785 3.800817 -0.426725 -2.008791 2.382388 3.827733 -4.271472 -10.263579 0.000000 -0.000000 0.000000 0.308511 0.728799 7.957277 1.048557 -1.538574 -1.051460 0.854282 0.042495 1.269482 1.037652 1.799565 -6.977145 3.017390 -3.207795 0.613192 -21.975834 2.662781 3.257393 -58.871607 -2.927580 15.766821 -3.525831 -41.930020 23.564934 6.562500 -11.674406 -14.052289 23.410312 2.763036 4.458596 57.246969 3.270856 16.345685 -4.253525 31.745227 9.607354 -9.374458 9.799468 -3.917832 
-1.032909 0.437261 0.989155 85.088790 0.840405 86.222900 -0.511049 2.203192 6.647069 -2.091885 -3.402087 -0.653318 4.300925 11.400801 -21.447248 0.000000 -0.000000 0.000000 0.657655 -2.602596 3.834398 -0.414343 -2.122078 2.455573 3.854309 -4.271834 -10.308504 0.000000 -0.000000 0.000000 0.329006 0.713951 7.989269 1.051548 -1.553425 -1.088173 0.852223 0.037825 1.279680 1.047593 1.785691 -6.992869 3.014643 -3.215159 0.500142 -21.995463 2.707517 3.205881 -58.864545 -2.917664 15.849644 -3.684760 -42.037909 23.803459 6.791536 -11.840220 -14.030845 23.420085 2.752381 4.397175 57.295610 3.326563 16.362447 -4.262241 31.651613 9.551052 -9.499855 9.902142 -3.879725 
-1.032822 0.437210 0.989147 85.289810 0.813204 86.191297 -0.527464 2.161519 6.622667 -2.099184 -3.494947 -0.560708 4.285790 11.335639 -21.474165 0.000000 -0.000000 0.000000 0.628589 -2.622373 3.877751 -0.396272 -2.209772 2.469267 3.816956 -4.368470 -10.312111 0.000000 -0.000000 0.000000 0.352311 0.702940 8.002320 1.062667 -1.581985 -1.078338 0.848214 0.025707 1.278403 1.049054 1.760934 -6.988908 3.010802 -3.217390 0.376604 -22.011411 2.704511 3.191913 -58.850980 -2.910795 15.879161 -3.786801 -42.107571 23.930319 6.860786 -11.883455 -14.020199 23.420729 2.756172 4.355543 57.335068 3.350153 16.374646 -4.299269 31.740109 9.476782 -9.569908 9.928558 -3.894855 
-1.032809 0.437149 0.989134 85.432972 0.784172 86.185863 -0.537632 2.144622 6.605839 -2.110911 -3.556590 -0.529133 4.262728 11.264333 -21.491690 0.000000 -0.000000 0.000000 0.601561 -2.627442 3.890682 -0.387698 -2.303150 2.488631 3.799690 -4.417622 -10.335143 0.000000 -0.000000 0.000000 0.367809 0.703884 8.002585 1.070733 -1.591320 -1.068466 0.848259 0.019684 1.274112 1.045829 1.749768 -6.979344 2.978411 -3.237238 0.276299 -22.030167 2.706988 3.174890 -58.846944 -2.906451 15.859358 -3.796035 -42.101783 23.956610 6.746163 -11.893126 -13.967567 23.419202 2.742839 4.338584 57.338976 3.337077 16.374943 -4.283074 31.999543 9.494628 -9.531539 9.882091 -3.957034 
-1.032832 0.437064 0.989112 85.521109 0.753191 86.219584 -0.561874 2.132479 6.561008 -2.109102 -3.587631 -0.530292 4.262140 11.220016 -21.477090 0.000000 -0.000000 0.000000 0.576512 -2.648909 3.866506 -0.390445 -2.356202 2.488552 3.776836 -4.428879 -10.362371 0.000000 -0.000000 0.000000 0.384529 0.720686 7.941098 1.075066 -1.591019 -1.032112 0.851320 0.021223 1.272579 1.006110 1.739271 -6.992916 2.932178 -3.232038 0.156297 -22.041401 2.703951 3.165946 -58.884727 -2.896435 15.823150 -3.687900 -42.016464 23.814383 6.636767 -11.785401 -14.014093 23.399141 2.753095 4.339753 57.376217 3.364573 16.393774 -4.270179 32.177715 9.523108 -9.457435 9.823944 -4.047021 
-1.032790 0.436983 0.989064 85.585333 0.725179 86.240596 -0.591931 2.124282 6.538040 -2.097679 -3.625041 -0.536562 4.275198 11.204821 -21.466022 0.000000 -0.000000 0.000000 0.548971 -2.676671 3.864810 -0.392349 -2.402049 2.489026 3.761820 -4.408457 -10.410694 0.000000 -0.000000 0.000000 0.414282 0.744497 7.871604 1.070437 -1.586948 -0.972554 0.851634 0.026550 1.263790 0.945311 1.744271 -7.014792 2.884232 -3.200663 0.022326 -22.057710 2.663824 3.177910 -58.903674 -2.869396 15.770376 -3.561433 -41.906755 23.598505 6.544053 -11.623702 -14.054199 23.377277 2.798515 4.372664 57.427995 3.400341 16.397224 -4.292618 32.279046 9.494787 -9.401033 9.753234 -4.132064 
-1.032705 0.436866 0.988953 85.664094 0.709650 86.250323 -0.601536 2.115065 6.526093 -2.086441 -3.649953 -0.547139 4.276835 11.161138 -21.448877 0.000000 -0.000000 0.000000 0.548487 -2.671176 3.885367 -0.385501 -2.450026 2.432139 3.701195 -4.470126 -10.407082 0.000000 -0.000000 0.000000 0.453746 0.762888 7.809721 1.067448 -1.586080 -0.895457 0.853025 0.024741 1.257201 0.894595 1.751432 -7.049168 2.816918 -3.149769 -0.185919 -22.074009 2.602069 3.190892 -58.907641 -2.848462 15.733409 -3.478641 -41.739576 23.544143 6.402986 -11.573040 -13.984566 23.343261 2.855487 4.394572 57.492607 3.445251 16.404040 -4.327093 32.315911 9.453723 -9.409205 9.734558 -4.177703 
